<mxfile host="app.diagrams.net" modified="2022-02-14T20:52:27.320Z" agent="5.0 (Windows NT 10.0; Win64; x64) AppleWebKit/537.36 (KHTML, like Gecko) Chrome/98.0.4758.82 Safari/537.36" etag="3jJOKZOkwWW_Sy6l7C3t" version="16.5.6" type="github">
  <diagram name="Page-1" id="edf60f1a-56cd-e834-aa8a-f176f3a09ee4">
    <mxGraphModel dx="2062" dy="1122" grid="1" gridSize="14" guides="1" tooltips="1" connect="1" arrows="1" fold="1" page="1" pageScale="1" pageWidth="827" pageHeight="1169" math="0" shadow="1">
      <root>
        <mxCell id="0" />
        <mxCell id="1" parent="0" />
        <mxCell id="60e70716793133e9-31" style="edgeStyle=orthogonalEdgeStyle;rounded=1;html=1;labelBackgroundColor=none;startSize=5;endArrow=classicThin;endFill=1;endSize=5;jettySize=auto;orthogonalLoop=1;strokeWidth=1;fontFamily=Verdana;fontSize=8;" parent="1" source="60e70716793133e9-2" target="60e70716793133e9-5" edge="1">
          <mxGeometry relative="1" as="geometry" />
        </mxCell>
        <mxCell id="60e70716793133e9-2" value="Determine need to&amp;nbsp;&lt;div&gt;replenish value-add&amp;nbsp;&lt;/div&gt;&lt;div&gt;stock&lt;/div&gt;" style="shape=trapezoid;whiteSpace=wrap;html=1;rounded=1;shadow=1;labelBackgroundColor=none;strokeWidth=1;fontFamily=Verdana;fontSize=8;align=center;flipV=1;" parent="1" vertex="1">
          <mxGeometry x="100" y="120" width="120" height="60" as="geometry" />
        </mxCell>
        <mxCell id="60e70716793133e9-32" style="edgeStyle=orthogonalEdgeStyle;rounded=1;html=1;labelBackgroundColor=none;startSize=5;endArrow=classicThin;endFill=1;endSize=5;jettySize=auto;orthogonalLoop=1;strokeWidth=1;fontFamily=Verdana;fontSize=8;" parent="1" source="60e70716793133e9-4" target="60e70716793133e9-5" edge="1">
          <mxGeometry relative="1" as="geometry" />
        </mxCell>
        <mxCell id="60e70716793133e9-4" value="Order a product that&lt;div&gt;requires value-add processing&lt;/div&gt;" style="rounded=1;whiteSpace=wrap;html=1;shadow=1;labelBackgroundColor=none;strokeWidth=1;fontFamily=Verdana;fontSize=8;align=center;" parent="1" vertex="1">
          <mxGeometry x="290" y="120" width="120" height="60" as="geometry" />
        </mxCell>
        <mxCell id="60e70716793133e9-33" value="Yes" style="edgeStyle=orthogonalEdgeStyle;rounded=1;html=1;labelBackgroundColor=none;startSize=5;endArrow=classicThin;endFill=1;endSize=5;jettySize=auto;orthogonalLoop=1;strokeWidth=1;fontFamily=Verdana;fontSize=8;" parent="1" source="60e70716793133e9-5" target="60e70716793133e9-7" edge="1">
          <mxGeometry x="-0.7778" y="10" relative="1" as="geometry">
            <mxPoint as="offset" />
          </mxGeometry>
        </mxCell>
        <mxCell id="60e70716793133e9-37" value="No" style="edgeStyle=orthogonalEdgeStyle;rounded=1;html=1;labelBackgroundColor=none;startSize=5;endArrow=classicThin;endFill=1;endSize=5;jettySize=auto;orthogonalLoop=1;strokeWidth=1;fontFamily=Verdana;fontSize=8;" parent="1" source="60e70716793133e9-5" target="60e70716793133e9-9" edge="1">
          <mxGeometry x="-0.5" y="10" relative="1" as="geometry">
            <mxPoint as="offset" />
          </mxGeometry>
        </mxCell>
        <mxCell id="60e70716793133e9-5" value="Frequently&lt;div&gt;performed&lt;/div&gt;&lt;div&gt;process?&lt;/div&gt;" style="rhombus;whiteSpace=wrap;html=1;rounded=1;shadow=1;labelBackgroundColor=none;strokeWidth=1;fontFamily=Verdana;fontSize=8;align=center;" parent="1" vertex="1">
          <mxGeometry x="200" y="220" width="100" height="60" as="geometry" />
        </mxCell>
        <mxCell id="60e70716793133e9-34" value="Yes" style="edgeStyle=orthogonalEdgeStyle;rounded=1;html=1;labelBackgroundColor=none;startSize=5;endArrow=classicThin;endFill=1;endSize=5;jettySize=auto;orthogonalLoop=1;strokeWidth=1;fontFamily=Verdana;fontSize=8;" parent="1" source="60e70716793133e9-7" target="60e70716793133e9-8" edge="1">
          <mxGeometry x="-0.6667" y="10" relative="1" as="geometry">
            <mxPoint as="offset" />
          </mxGeometry>
        </mxCell>
        <mxCell id="60e70716793133e9-35" value="No" style="edgeStyle=orthogonalEdgeStyle;rounded=1;html=1;labelBackgroundColor=none;startSize=5;endArrow=classicThin;endFill=1;endSize=5;jettySize=auto;orthogonalLoop=1;strokeWidth=1;fontFamily=Verdana;fontSize=8;" parent="1" source="60e70716793133e9-7" target="60e70716793133e9-10" edge="1">
          <mxGeometry x="-1" y="-10" relative="1" as="geometry">
            <mxPoint x="440" y="300" as="targetPoint" />
            <Array as="points" />
            <mxPoint as="offset" />
          </mxGeometry>
        </mxCell>
        <mxCell id="60e70716793133e9-7" value="New&amp;nbsp;&lt;div&gt;template&amp;nbsp;&lt;/div&gt;&lt;div&gt;needed?&lt;/div&gt;" style="rhombus;whiteSpace=wrap;html=1;rounded=1;shadow=1;labelBackgroundColor=none;strokeWidth=1;fontFamily=Verdana;fontSize=8;align=center;" parent="1" vertex="1">
          <mxGeometry x="390" y="220" width="100" height="60" as="geometry" />
        </mxCell>
        <mxCell id="60e70716793133e9-36" style="edgeStyle=orthogonalEdgeStyle;rounded=1;html=1;labelBackgroundColor=none;startSize=5;endArrow=classicThin;endFill=1;endSize=5;jettySize=auto;orthogonalLoop=1;strokeWidth=1;fontFamily=Verdana;fontSize=8;" parent="1" source="60e70716793133e9-8" target="60e70716793133e9-10" edge="1">
          <mxGeometry relative="1" as="geometry">
            <Array as="points">
              <mxPoint x="600" y="290" />
              <mxPoint x="440" y="290" />
            </Array>
          </mxGeometry>
        </mxCell>
        <mxCell id="60e70716793133e9-8" value="Create work&amp;nbsp;&lt;div&gt;order template&lt;/div&gt;" style="rounded=1;whiteSpace=wrap;html=1;shadow=1;labelBackgroundColor=none;strokeWidth=1;fontFamily=Verdana;fontSize=8;align=center;" parent="1" vertex="1">
          <mxGeometry x="550" y="230" width="100" height="40" as="geometry" />
        </mxCell>
        <mxCell id="60e70716793133e9-38" style="edgeStyle=orthogonalEdgeStyle;rounded=1;html=1;labelBackgroundColor=none;startSize=5;endArrow=classicThin;endFill=1;endSize=5;jettySize=auto;orthogonalLoop=1;strokeWidth=1;fontFamily=Verdana;fontSize=8;" parent="1" source="60e70716793133e9-9" target="60e70716793133e9-11" edge="1">
          <mxGeometry relative="1" as="geometry" />
        </mxCell>
        <mxCell id="60e70716793133e9-9" value="Create a work order" style="whiteSpace=wrap;html=1;rounded=1;shadow=1;labelBackgroundColor=none;strokeWidth=1;fontFamily=Verdana;fontSize=8;align=center;" parent="1" vertex="1">
          <mxGeometry x="190" y="320" width="120" height="40" as="geometry" />
        </mxCell>
        <mxCell id="60e70716793133e9-39" style="edgeStyle=orthogonalEdgeStyle;rounded=1;html=1;labelBackgroundColor=none;startSize=5;endArrow=classicThin;endFill=1;endSize=5;jettySize=auto;orthogonalLoop=1;strokeWidth=1;fontFamily=Verdana;fontSize=8;" parent="1" source="60e70716793133e9-10" target="60e70716793133e9-12" edge="1">
          <mxGeometry relative="1" as="geometry" />
        </mxCell>
        <mxCell id="60e70716793133e9-10" value="Copy template&amp;nbsp;&lt;div&gt;to work order&lt;/div&gt;" style="whiteSpace=wrap;html=1;rounded=1;shadow=1;labelBackgroundColor=none;strokeWidth=1;fontFamily=Verdana;fontSize=8;align=center;" parent="1" vertex="1">
          <mxGeometry x="380" y="320" width="120" height="40" as="geometry" />
        </mxCell>
        <mxCell id="60e70716793133e9-41" style="edgeStyle=orthogonalEdgeStyle;rounded=1;html=1;labelBackgroundColor=none;startSize=5;endArrow=classicThin;endFill=1;endSize=5;jettySize=auto;orthogonalLoop=1;strokeWidth=1;fontFamily=Verdana;fontSize=8;" parent="1" source="60e70716793133e9-11" target="60e70716793133e9-13" edge="1">
          <mxGeometry relative="1" as="geometry" />
        </mxCell>
        <mxCell id="60e70716793133e9-11" value="Add materials to work order processes" style="whiteSpace=wrap;html=1;rounded=1;shadow=1;labelBackgroundColor=none;strokeWidth=1;fontFamily=Verdana;fontSize=8;align=center;spacing=6;" parent="1" vertex="1">
          <mxGeometry x="190" y="410" width="120" height="40" as="geometry" />
        </mxCell>
        <mxCell id="60e70716793133e9-40" style="edgeStyle=orthogonalEdgeStyle;rounded=1;html=1;labelBackgroundColor=none;startSize=5;endArrow=classicThin;endFill=1;endSize=5;jettySize=auto;orthogonalLoop=1;strokeWidth=1;fontFamily=Verdana;fontSize=8;" parent="1" source="60e70716793133e9-12" target="60e70716793133e9-13" edge="1">
          <mxGeometry relative="1" as="geometry" />
        </mxCell>
        <mxCell id="60e70716793133e9-12" value="Adjust material quantities if needed" style="whiteSpace=wrap;html=1;rounded=1;shadow=1;labelBackgroundColor=none;strokeWidth=1;fontFamily=Verdana;fontSize=8;align=center;spacing=6;" parent="1" vertex="1">
          <mxGeometry x="380" y="410" width="120" height="40" as="geometry" />
        </mxCell>
        <mxCell id="60e70716793133e9-42" style="edgeStyle=orthogonalEdgeStyle;rounded=1;html=1;labelBackgroundColor=none;startSize=5;endArrow=classicThin;endFill=1;endSize=5;jettySize=auto;orthogonalLoop=1;strokeWidth=1;fontFamily=Verdana;fontSize=8;" parent="1" source="60e70716793133e9-13" target="60e70716793133e9-14" edge="1">
          <mxGeometry relative="1" as="geometry" />
        </mxCell>
        <mxCell id="60e70716793133e9-13" value="Monitor work orders" style="whiteSpace=wrap;html=1;rounded=1;shadow=1;labelBackgroundColor=none;strokeWidth=1;fontFamily=Verdana;fontSize=8;align=center;" parent="1" vertex="1">
          <mxGeometry x="280" y="500" width="120" height="40" as="geometry" />
        </mxCell>
        <mxCell id="60e70716793133e9-43" value="Yes" style="edgeStyle=orthogonalEdgeStyle;rounded=1;html=1;labelBackgroundColor=none;startSize=5;endArrow=classicThin;endFill=1;endSize=5;jettySize=auto;orthogonalLoop=1;strokeWidth=1;fontFamily=Verdana;fontSize=8;" parent="1" source="60e70716793133e9-14" target="60e70716793133e9-15" edge="1">
          <mxGeometry x="-0.6667" y="10" relative="1" as="geometry">
            <mxPoint as="offset" />
          </mxGeometry>
        </mxCell>
        <mxCell id="60e70716793133e9-44" value="No" style="edgeStyle=orthogonalEdgeStyle;rounded=1;html=1;labelBackgroundColor=none;startSize=5;endArrow=classicThin;endFill=1;endSize=5;jettySize=auto;orthogonalLoop=1;strokeWidth=1;fontFamily=Verdana;fontSize=8;" parent="1" source="60e70716793133e9-14" target="60e70716793133e9-16" edge="1">
          <mxGeometry x="-0.5" y="-10" relative="1" as="geometry">
            <mxPoint as="offset" />
          </mxGeometry>
        </mxCell>
        <mxCell id="60e70716793133e9-14" value="Material&amp;nbsp;&lt;div&gt;quantities not&amp;nbsp;&lt;/div&gt;&lt;div&gt;in stock?&lt;/div&gt;" style="rhombus;whiteSpace=wrap;html=1;rounded=1;shadow=1;labelBackgroundColor=none;strokeWidth=1;fontFamily=Verdana;fontSize=8;align=center;" parent="1" vertex="1">
          <mxGeometry x="290" y="570" width="100" height="60" as="geometry" />
        </mxCell>
        <mxCell id="60e70716793133e9-45" style="edgeStyle=orthogonalEdgeStyle;rounded=1;html=1;labelBackgroundColor=none;startSize=5;endArrow=classicThin;endFill=1;endSize=5;jettySize=auto;orthogonalLoop=1;strokeWidth=1;fontFamily=Verdana;fontSize=8;" parent="1" source="60e70716793133e9-15" target="60e70716793133e9-16" edge="1">
          <mxGeometry relative="1" as="geometry">
            <Array as="points">
              <mxPoint x="510" y="650" />
              <mxPoint x="340" y="650" />
            </Array>
          </mxGeometry>
        </mxCell>
        <mxCell id="60e70716793133e9-15" value="Procedure or&amp;nbsp;&lt;div&gt;transfer materials&lt;/div&gt;" style="whiteSpace=wrap;html=1;rounded=1;shadow=1;labelBackgroundColor=none;strokeWidth=1;fontFamily=Verdana;fontSize=8;align=center;" parent="1" vertex="1">
          <mxGeometry x="450" y="580" width="120" height="40" as="geometry" />
        </mxCell>
        <mxCell id="60e70716793133e9-46" style="edgeStyle=orthogonalEdgeStyle;rounded=1;html=1;labelBackgroundColor=none;startSize=5;endArrow=classicThin;endFill=1;endSize=5;jettySize=auto;orthogonalLoop=1;strokeWidth=1;fontFamily=Verdana;fontSize=8;" parent="1" source="60e70716793133e9-16" target="60e70716793133e9-17" edge="1">
          <mxGeometry relative="1" as="geometry" />
        </mxCell>
        <mxCell id="60e70716793133e9-16" value="Change status to&lt;div&gt;In Process&lt;/div&gt;" style="whiteSpace=wrap;html=1;rounded=1;shadow=1;labelBackgroundColor=none;strokeWidth=1;fontFamily=Verdana;fontSize=8;align=center;" parent="1" vertex="1">
          <mxGeometry x="280" y="670" width="120" height="40" as="geometry" />
        </mxCell>
        <mxCell id="60e70716793133e9-47" value="Yes" style="edgeStyle=orthogonalEdgeStyle;rounded=1;html=1;labelBackgroundColor=none;startSize=5;endArrow=classicThin;endFill=1;endSize=5;jettySize=auto;orthogonalLoop=1;strokeWidth=1;fontFamily=Verdana;fontSize=8;" parent="1" source="60e70716793133e9-17" target="60e70716793133e9-18" edge="1">
          <mxGeometry x="-0.6667" y="10" relative="1" as="geometry">
            <mxPoint as="offset" />
          </mxGeometry>
        </mxCell>
        <mxCell id="60e70716793133e9-50" value="No" style="edgeStyle=orthogonalEdgeStyle;rounded=1;html=1;labelBackgroundColor=none;startSize=5;endArrow=classicThin;endFill=1;endSize=5;jettySize=auto;orthogonalLoop=1;strokeWidth=1;fontFamily=Verdana;fontSize=8;" parent="1" source="60e70716793133e9-17" target="60e70716793133e9-19" edge="1">
          <mxGeometry x="-1" y="-10" relative="1" as="geometry">
            <mxPoint as="offset" />
          </mxGeometry>
        </mxCell>
        <mxCell id="60e70716793133e9-17" value="Step&amp;nbsp;&lt;div&gt;performed by&amp;nbsp;&lt;/div&gt;&lt;div&gt;outside&amp;nbsp;&lt;/div&gt;&lt;div&gt;vendor?&lt;/div&gt;" style="rhombus;whiteSpace=wrap;html=1;rounded=1;shadow=1;labelBackgroundColor=none;strokeWidth=1;fontFamily=Verdana;fontSize=8;align=center;" parent="1" vertex="1">
          <mxGeometry x="290" y="740" width="100" height="60" as="geometry" />
        </mxCell>
        <mxCell id="60e70716793133e9-48" style="edgeStyle=orthogonalEdgeStyle;rounded=1;html=1;labelBackgroundColor=none;startSize=5;endArrow=classicThin;endFill=1;endSize=5;jettySize=auto;orthogonalLoop=1;strokeWidth=1;fontFamily=Verdana;fontSize=8;" parent="1" source="60e70716793133e9-18" target="60e70716793133e9-20" edge="1">
          <mxGeometry relative="1" as="geometry" />
        </mxCell>
        <mxCell id="60e70716793133e9-18" value="Add or adjust vendor costs" style="whiteSpace=wrap;html=1;rounded=1;shadow=1;labelBackgroundColor=none;strokeWidth=1;fontFamily=Verdana;fontSize=8;align=center;" parent="1" vertex="1">
          <mxGeometry x="450" y="750" width="120" height="40" as="geometry" />
        </mxCell>
        <mxCell id="60e70716793133e9-52" style="edgeStyle=orthogonalEdgeStyle;rounded=1;html=1;labelBackgroundColor=none;startSize=5;endArrow=classicThin;endFill=1;endSize=5;jettySize=auto;orthogonalLoop=1;strokeWidth=1;fontFamily=Verdana;fontSize=8;" parent="1" source="60e70716793133e9-19" target="60e70716793133e9-21" edge="1">
          <mxGeometry relative="1" as="geometry" />
        </mxCell>
        <mxCell id="60e70716793133e9-19" value="Perform work&amp;nbsp;&lt;div&gt;order step&lt;/div&gt;" style="shape=trapezoid;whiteSpace=wrap;html=1;rounded=1;shadow=1;labelBackgroundColor=none;strokeWidth=1;fontFamily=Verdana;fontSize=8;align=center;flipV=1;" parent="1" vertex="1">
          <mxGeometry x="280" y="840" width="120" height="60" as="geometry" />
        </mxCell>
        <mxCell id="60e70716793133e9-49" style="edgeStyle=orthogonalEdgeStyle;rounded=1;html=1;labelBackgroundColor=none;startSize=5;endArrow=classicThin;endFill=1;endSize=5;jettySize=auto;orthogonalLoop=1;strokeWidth=1;fontFamily=Verdana;fontSize=8;" parent="1" source="60e70716793133e9-20" target="60e70716793133e9-22" edge="1">
          <mxGeometry relative="1" as="geometry" />
        </mxCell>
        <mxCell id="60e70716793133e9-53" style="edgeStyle=orthogonalEdgeStyle;rounded=1;html=1;labelBackgroundColor=none;startSize=5;endArrow=classicThin;endFill=1;endSize=5;jettySize=auto;orthogonalLoop=1;strokeWidth=1;fontFamily=Verdana;fontSize=8;" parent="1" source="60e70716793133e9-20" target="60e70716793133e9-27" edge="1">
          <mxGeometry relative="1" as="geometry">
            <Array as="points">
              <mxPoint x="510" y="920" />
              <mxPoint x="680" y="920" />
            </Array>
          </mxGeometry>
        </mxCell>
        <mxCell id="60e70716793133e9-20" value="Ship materials&amp;nbsp;&lt;div&gt;to vendor&lt;/div&gt;" style="rounded=1;whiteSpace=wrap;html=1;shadow=1;labelBackgroundColor=none;strokeWidth=1;fontFamily=Verdana;fontSize=8;align=center;" parent="1" vertex="1">
          <mxGeometry x="450" y="850" width="120" height="40" as="geometry" />
        </mxCell>
        <mxCell id="60e70716793133e9-51" value="Yes" style="edgeStyle=orthogonalEdgeStyle;rounded=1;html=1;labelBackgroundColor=none;startSize=5;endArrow=classicThin;endFill=1;endSize=5;jettySize=auto;orthogonalLoop=1;strokeWidth=1;fontFamily=Verdana;fontSize=8;" parent="1" source="60e70716793133e9-21" target="60e70716793133e9-17" edge="1">
          <mxGeometry x="-0.6924" y="-20" relative="1" as="geometry">
            <Array as="points">
              <mxPoint x="260" y="969.9999999999998" />
              <mxPoint x="260" y="770" />
            </Array>
            <mxPoint as="offset" />
          </mxGeometry>
        </mxCell>
        <mxCell id="60e70716793133e9-54" value="No" style="edgeStyle=orthogonalEdgeStyle;rounded=1;html=1;labelBackgroundColor=none;startSize=5;endArrow=classicThin;endFill=1;endSize=5;jettySize=auto;orthogonalLoop=1;strokeWidth=1;fontFamily=Verdana;fontSize=8;" parent="1" source="60e70716793133e9-21" target="60e70716793133e9-23" edge="1">
          <mxGeometry x="-1" y="-10" relative="1" as="geometry">
            <mxPoint as="offset" />
          </mxGeometry>
        </mxCell>
        <mxCell id="60e70716793133e9-21" value="Additional&amp;nbsp;&lt;div&gt;processing&amp;nbsp;&lt;/div&gt;&lt;div&gt;required?&lt;/div&gt;" style="rhombus;whiteSpace=wrap;html=1;rounded=1;shadow=1;labelBackgroundColor=none;strokeWidth=1;fontFamily=Verdana;fontSize=8;align=center;" parent="1" vertex="1">
          <mxGeometry x="290" y="940" width="100" height="60" as="geometry" />
        </mxCell>
        <mxCell id="60e70716793133e9-58" style="edgeStyle=orthogonalEdgeStyle;rounded=1;html=1;labelBackgroundColor=none;startSize=5;endArrow=classicThin;endFill=1;endSize=5;jettySize=auto;orthogonalLoop=1;strokeWidth=1;fontFamily=Verdana;fontSize=8;" parent="1" source="60e70716793133e9-22" target="60e70716793133e9-24" edge="1">
          <mxGeometry relative="1" as="geometry" />
        </mxCell>
        <mxCell id="60e70716793133e9-22" value="Perform work&amp;nbsp;&lt;div&gt;order step&lt;/div&gt;" style="shape=trapezoid;whiteSpace=wrap;html=1;rounded=1;shadow=1;labelBackgroundColor=none;strokeWidth=1;fontFamily=Verdana;fontSize=8;align=center;flipV=1;" parent="1" vertex="1">
          <mxGeometry x="450" y="940" width="120" height="60" as="geometry" />
        </mxCell>
        <mxCell id="60e70716793133e9-55" style="edgeStyle=orthogonalEdgeStyle;rounded=1;html=1;labelBackgroundColor=none;startSize=5;endArrow=classicThin;endFill=1;endSize=5;jettySize=auto;orthogonalLoop=1;strokeWidth=1;fontFamily=Verdana;fontSize=8;" parent="1" source="60e70716793133e9-23" target="60e70716793133e9-25" edge="1">
          <mxGeometry relative="1" as="geometry" />
        </mxCell>
        <mxCell id="60e70716793133e9-23" value="Receive info stock" style="rounded=1;whiteSpace=wrap;html=1;shadow=1;labelBackgroundColor=none;strokeWidth=1;fontFamily=Verdana;fontSize=8;align=center;" parent="1" vertex="1">
          <mxGeometry x="280" y="1040" width="120" height="40" as="geometry" />
        </mxCell>
        <mxCell id="60e70716793133e9-59" style="edgeStyle=orthogonalEdgeStyle;rounded=1;html=1;labelBackgroundColor=none;startSize=5;endArrow=classicThin;endFill=1;endSize=5;jettySize=auto;orthogonalLoop=1;strokeWidth=1;fontFamily=Verdana;fontSize=8;" parent="1" source="60e70716793133e9-24" target="60e70716793133e9-26" edge="1">
          <mxGeometry relative="1" as="geometry" />
        </mxCell>
        <mxCell id="60e70716793133e9-24" value="Receive product&amp;nbsp;&lt;div&gt;from vendor&lt;/div&gt;" style="rounded=1;whiteSpace=wrap;html=1;shadow=1;labelBackgroundColor=none;strokeWidth=1;fontFamily=Verdana;fontSize=8;align=center;" parent="1" vertex="1">
          <mxGeometry x="450" y="1040" width="120" height="40" as="geometry" />
        </mxCell>
        <mxCell id="60e70716793133e9-56" style="edgeStyle=orthogonalEdgeStyle;rounded=1;html=1;labelBackgroundColor=none;startSize=5;endArrow=classicThin;endFill=1;endSize=5;jettySize=auto;orthogonalLoop=1;strokeWidth=1;fontFamily=Verdana;fontSize=8;" parent="1" source="60e70716793133e9-25" target="60e70716793133e9-28" edge="1">
          <mxGeometry relative="1" as="geometry" />
        </mxCell>
        <mxCell id="60e70716793133e9-25" value="Ship product on order if needed" style="rounded=1;whiteSpace=wrap;html=1;shadow=1;labelBackgroundColor=none;strokeWidth=1;fontFamily=Verdana;fontSize=8;align=center;" parent="1" vertex="1">
          <mxGeometry x="280" y="1120" width="120" height="40" as="geometry" />
        </mxCell>
        <mxCell id="60e70716793133e9-60" value="No" style="edgeStyle=orthogonalEdgeStyle;rounded=1;html=1;labelBackgroundColor=none;startSize=5;endArrow=classicThin;endFill=1;endSize=5;jettySize=auto;orthogonalLoop=1;strokeWidth=1;fontFamily=Verdana;fontSize=8;" parent="1" source="60e70716793133e9-26" target="60e70716793133e9-29" edge="1">
          <mxGeometry x="0.2" y="14" relative="1" as="geometry">
            <mxPoint x="-24" y="-10" as="offset" />
          </mxGeometry>
        </mxCell>
        <mxCell id="60e70716793133e9-61" value="Yes" style="edgeStyle=orthogonalEdgeStyle;rounded=1;html=1;labelBackgroundColor=none;startSize=5;endArrow=classicThin;endFill=1;endSize=5;jettySize=auto;orthogonalLoop=1;strokeWidth=1;fontFamily=Verdana;fontSize=8;" parent="1" source="60e70716793133e9-26" target="60e70716793133e9-27" edge="1">
          <mxGeometry x="-0.6667" y="10" relative="1" as="geometry">
            <mxPoint as="offset" />
          </mxGeometry>
        </mxCell>
        <mxCell id="60e70716793133e9-26" value="Only partial&amp;nbsp;&lt;div&gt;quality&amp;nbsp;&lt;/div&gt;&lt;div&gt;received?&lt;/div&gt;" style="rhombus;whiteSpace=wrap;html=1;rounded=1;shadow=1;labelBackgroundColor=none;strokeWidth=1;fontFamily=Verdana;fontSize=8;align=center;" parent="1" vertex="1">
          <mxGeometry x="460" y="1110" width="100" height="60" as="geometry" />
        </mxCell>
        <mxCell id="60e70716793133e9-27" value="Create work&amp;nbsp;&lt;div&gt;order backorder&lt;/div&gt;" style="whiteSpace=wrap;html=1;rounded=1;shadow=1;labelBackgroundColor=none;strokeWidth=1;fontFamily=Verdana;fontSize=8;align=center;" parent="1" vertex="1">
          <mxGeometry x="620" y="1120" width="120" height="40" as="geometry" />
        </mxCell>
        <mxCell id="60e70716793133e9-57" style="edgeStyle=orthogonalEdgeStyle;rounded=1;html=1;labelBackgroundColor=none;startSize=5;endArrow=classicThin;endFill=1;endSize=5;jettySize=auto;orthogonalLoop=1;strokeWidth=1;fontFamily=Verdana;fontSize=8;" parent="1" source="60e70716793133e9-28" target="60e70716793133e9-30" edge="1">
          <mxGeometry relative="1" as="geometry" />
        </mxCell>
        <mxCell id="60e70716793133e9-28" value="Change status to&lt;div&gt;Complete&lt;/div&gt;" style="whiteSpace=wrap;html=1;rounded=1;shadow=1;labelBackgroundColor=none;strokeWidth=1;fontFamily=Verdana;fontSize=8;align=center;" parent="1" vertex="1">
          <mxGeometry x="280" y="1200" width="120" height="40" as="geometry" />
        </mxCell>
        <mxCell id="60e70716793133e9-62" style="edgeStyle=orthogonalEdgeStyle;rounded=1;html=1;labelBackgroundColor=none;startSize=5;endArrow=classicThin;endFill=1;endSize=5;jettySize=auto;orthogonalLoop=1;strokeWidth=1;fontFamily=Verdana;fontSize=8;" parent="1" source="60e70716793133e9-29" target="60e70716793133e9-21" edge="1">
          <mxGeometry relative="1" as="geometry">
            <Array as="points">
              <mxPoint x="430" y="1220" />
              <mxPoint x="430" y="920" />
              <mxPoint x="340" y="920" />
            </Array>
          </mxGeometry>
        </mxCell>
        <mxCell id="60e70716793133e9-29" value="Pay vendor invoice" style="rounded=1;whiteSpace=wrap;html=1;shadow=1;labelBackgroundColor=none;strokeWidth=1;fontFamily=Verdana;fontSize=8;align=center;" parent="1" vertex="1">
          <mxGeometry x="450" y="1200" width="120" height="40" as="geometry" />
        </mxCell>
        <mxCell id="60e70716793133e9-30" value="End" style="strokeWidth=1;html=1;shape=mxgraph.flowchart.terminator;whiteSpace=wrap;rounded=1;shadow=1;labelBackgroundColor=none;fontFamily=Verdana;fontSize=8;align=center;" parent="1" vertex="1">
          <mxGeometry x="310" y="1290" width="60" height="30" as="geometry" />
        </mxCell>
      </root>
    </mxGraphModel>
  </diagram>
</mxfile>
